<?xml version="1.0" encoding="iso-8859-1"?>
<!-- Generator: Adobe Illustrator 16.0.0, SVG Export Plug-In . SVG Version: 6.00 Build 0)  -->
<!DOCTYPE svg PUBLIC "-//W3C//DTD SVG 1.1//EN" "http://www.w3.org/Graphics/SVG/1.1/DTD/svg11.dtd">
<svg xmlns="http://www.w3.org/2000/svg" xmlns:xlink="http://www.w3.org/1999/xlink" version="1.1" id="Capa_1" x="0px" y="0px" width="512px" height="512px" viewBox="0 0 556.669 556.669" style="enable-background:new 0 0 556.669 556.669;" xml:space="preserve">
<g>
	<g>
		<path d="M545.782,241.477l-45.257-60.229l-13.474-74.123c-4.178-23.003-22.545-40.669-45.696-43.957L366.76,52.584L304.829,9.699    c-15.57-10.776-35.216-12.679-52.548-5.096c-3.837,1.675-7.477,3.801-10.843,6.33l-60.232,45.262l-74.125,13.474    c-4.132,0.75-8.171,1.988-12.019,3.664C77.986,80.797,65.75,96.906,63.13,115.364l-10.579,74.588L9.655,251.9    c-13.31,19.221-12.821,44.697,1.23,63.391l45.265,60.222l13.463,74.125c4.184,23.006,22.545,40.669,45.702,43.957l74.596,10.584    l61.93,42.885c15.327,10.61,35.459,12.572,52.547,5.101c3.843-1.678,7.498-3.811,10.854-6.333l60.217-45.267l74.14-13.474    c4.122-0.751,8.172-1.988,12.003-3.661c17.083-7.467,29.319-23.57,31.938-42.036l10.574-74.591l42.896-61.94    C560.328,285.636,559.831,260.162,545.782,241.477z M278.338,476.408c-109.222,0-198.074-88.852-198.074-198.068    c0-109.22,88.857-198.071,198.074-198.071c109.212,0,198.068,88.851,198.068,198.071    C476.406,387.557,387.555,476.408,278.338,476.408z" fill="#FFFFFF"/>
		<path d="M281.538,294.154l-54.257,157.627c16.187,4.759,33.311,7.337,51.077,7.337c21.033,0,41.238-3.646,60.025-10.268    c-0.472-0.771-0.938-1.574-1.274-2.465L281.538,294.154z" fill="#FFFFFF"/>
		<path d="M369.25,434.574c53.729-31.322,89.851-89.54,89.851-156.229c0-31.449-8.016-60.987-22.142-86.759    c0.803,5.781,1.248,11.943,1.248,18.612c0,18.331-3.433,38.945-13.773,64.742L369.25,434.574z" fill="#FFFFFF"/>
		<path d="M97.58,278.345c0,71.521,41.57,133.394,101.885,162.666l-86.231-236.26C103.183,227.25,97.58,252.113,97.58,278.345z" fill="#FFFFFF"/>
		<path d="M400.386,269.208c0-22.338-8.036-37.826-14.912-49.857c-9.15-14.9-17.735-27.488-17.735-42.403    c0-16.619,12.572-32.076,30.369-32.076c0.757,0,1.543,0.101,2.32,0.161c-32.151-29.471-75.005-47.478-122.064-47.478    c-63.163,0-118.729,32.42-151.036,81.493c4.262,0.127,8.238,0.228,11.63,0.228c18.906,0,48.178-2.322,48.178-2.322    c9.724-0.546,10.884,13.738,1.129,14.916c0,0-9.776,1.128-20.666,1.719l65.845,195.787l39.551-118.628l-28.19-77.167    c-9.745-0.588-18.941-1.716-18.941-1.716c-9.756-0.59-8.606-15.462,1.149-14.916c0,0,29.841,2.322,47.603,2.322    c18.911,0,48.198-2.322,48.198-2.322c9.725-0.546,10.874,13.737,1.14,14.916c0,0-9.787,1.128-20.677,1.716l65.322,194.299    l18.04-60.222C395.782,304.147,400.386,284.688,400.386,269.208z" fill="#FFFFFF"/>
	</g>
</g>
<g>
</g>
<g>
</g>
<g>
</g>
<g>
</g>
<g>
</g>
<g>
</g>
<g>
</g>
<g>
</g>
<g>
</g>
<g>
</g>
<g>
</g>
<g>
</g>
<g>
</g>
<g>
</g>
<g>
</g>
</svg>
