<?xml version="1.0" encoding="iso-8859-1"?>
<!-- Generator: Adobe Illustrator 19.0.0, SVG Export Plug-In . SVG Version: 6.00 Build 0)  -->
<svg version="1.1" id="Capa_1" xmlns="http://www.w3.org/2000/svg" xmlns:xlink="http://www.w3.org/1999/xlink" x="0px" y="0px"
	 viewBox="0 0 512 512" style="enable-background:new 0 0 512 512;" xml:space="preserve">
<path style="fill:#EF5350;" d="M256,107.978C204.013,57.171,141.702,46.603,92.482,63.218l-0.55,0.186l-9.678,13.554l-6.777-6.663
	C-25.487,120.84-49.136,296.129,256,456.062C715.937,214.991,428.873-60.972,256,107.978z"/>
<path style="fill:#D44A47;" d="M354.234,57.357c125.915,18.416,199.496,212.906-95.113,397.057
	C633.421,256.643,506.934,36.156,354.234,57.357z"/>
<path style="fill:#B3E5FC;" d="M366.916,322.232c-11.779,0-24.213-10.802,0-49.412C391.128,311.428,378.695,322.232,366.916,322.232
	z"/>
<path d="M252.498,462.708c2.162,1.133,4.802,1.134,6.962,0c71.807-37.637,129.64-78.315,171.892-120.903
	c37.677-37.978,62.513-76.872,73.819-115.601c11.789-40.382,8.264-78.766-10.191-111.002c-2.058-3.594-6.64-4.841-10.234-2.782
	c-3.595,2.058-4.84,6.64-2.783,10.234c16.384,28.616,19.431,62.97,8.811,99.346c-10.598,36.303-34.172,73.057-70.07,109.24
	c-40.487,40.81-95.895,79.944-164.724,116.349c-85.7-45.322-150.025-94.417-191.234-145.962
	C30.056,258.237,12.923,213.92,15.199,173.47c1.305-23.181,9.139-44.864,22.654-62.705c9.547-12.603,21.77-23.141,35.882-31.057
	c0,0-13.692,74.887-13.729,75.087c-0.832,4.549,2.763,8.849,7.377,8.849h33.472c0,0-6.63,48.068-6.652,48.23
	c-1.322,9.58,13.534,11.652,14.858,2.05c0,0,7.815-56.658,7.828-56.755c0.614-4.454-2.944-8.524-7.429-8.524H76.379l14.026-76.71
	c24.302-9.228,51.203-10.991,77.871-5.064c29.56,6.568,58.074,22.639,82.463,46.473c2.914,2.849,7.568,2.848,10.483,0
	c41.209-40.274,82.98-49.354,110.765-49.88c35.626-0.681,69.469,12.65,92.85,36.557c2.896,2.961,7.644,3.014,10.604,0.118
	c2.961-2.896,3.014-7.644,0.118-10.605c-26.261-26.851-64.124-41.82-103.857-41.066c-40.976,0.774-81.814,18.184-115.722,49.191
	c-25.212-23.068-54.277-38.726-84.45-45.431c-53.211-11.825-112.099,5.217-145.632,49.478
	c-15.324,20.226-24.201,44.75-25.674,70.919c-2.488,44.198,15.773,92.044,52.808,138.367
	C96.1,364.865,163.211,415.908,252.498,462.708z"/>
<path d="M358.468,196.759c4.143,0,7.499-3.358,7.499-7.499c0-4.142-3.357-7.499-7.499-7.499c-20.641,0-34.114-16.572-34.31-16.816
	c-2.557-3.243-7.256-3.809-10.51-1.262c-3.262,2.553-3.837,7.266-1.284,10.527C313.085,175.131,330.334,196.759,358.468,196.759z"/>
<path d="M308.388,215.184v18.801c0,13.065,10.629,23.693,23.693,23.693c13.064,0,23.693-10.628,23.693-23.693v-18.801
	c0-4.142-3.358-7.499-7.499-7.499c-4.142,0-7.499,3.358-7.499,7.499v18.801c0,4.795-3.9,8.694-8.694,8.694
	c-4.794,0-8.694-3.9-8.694-8.694v-18.801c0-4.142-3.357-7.499-7.499-7.499C311.747,207.685,308.388,211.042,308.388,215.184z"/>
<path d="M199.595,174.21c2.546-3.252,1.973-7.938-1.27-10.497s-7.951-2.002-10.523,1.23c-0.134,0.168-13.622,16.817-34.31,16.817
	c-4.142,0-7.499,3.358-7.499,7.499c0,4.142,3.358,7.499,7.499,7.499C181.625,196.759,198.875,175.131,199.595,174.21z"/>
<path d="M179.878,257.679c13.065,0,23.693-10.628,23.693-23.693v-18.801c0-4.142-3.357-7.499-7.499-7.499
	c-4.142,0-7.499,3.358-7.499,7.499v18.801c0,4.795-3.9,8.694-8.694,8.694c-4.794,0-8.694-3.9-8.694-8.694v-18.801
	c0-4.142-3.357-7.499-7.499-7.499c-4.142,0-7.499,3.358-7.499,7.499v18.801C156.184,247.049,166.813,257.679,179.878,257.679z"/>
<path d="M255.98,261.328c-16.139,0-30.301,12.099-34.438,29.422c-0.963,4.029,1.523,8.074,5.552,9.037
	c4.025,0.961,8.074-1.523,9.036-5.552c2.52-10.544,10.682-17.909,19.851-17.909s17.333,7.365,19.851,17.912
	c0.822,3.443,3.896,5.76,7.287,5.759c0.577,0,1.163-0.067,1.749-0.207c4.028-0.962,6.514-5.008,5.553-9.036
	C286.282,273.428,272.12,261.328,255.98,261.328z"/>
<path d="M366.896,329.733c8.27,0,15.065-3.709,18.644-10.176c6.071-10.971,1.936-28.036-12.289-50.719
	c-1.372-2.188-3.772-3.516-6.353-3.516c-2.582,0-4.982,1.328-6.354,3.516c-14.225,22.683-18.36,39.747-12.29,50.719
	C351.831,326.024,358.625,329.733,366.896,329.733z M366.896,287.929c8.586,16.902,6.2,23.137,5.52,24.367
	c-1.115,2.016-3.617,2.438-5.52,2.438s-4.404-0.423-5.519-2.438C360.697,311.066,358.309,304.831,366.896,287.929z"/>
<g>
</g>
<g>
</g>
<g>
</g>
<g>
</g>
<g>
</g>
<g>
</g>
<g>
</g>
<g>
</g>
<g>
</g>
<g>
</g>
<g>
</g>
<g>
</g>
<g>
</g>
<g>
</g>
<g>
</g>
</svg>
