<?xml version="1.0" encoding="iso-8859-1"?>
<!-- Generator: Adobe Illustrator 19.0.0, SVG Export Plug-In . SVG Version: 6.00 Build 0)  -->
<svg version="1.1" id="Capa_1" xmlns="http://www.w3.org/2000/svg" xmlns:xlink="http://www.w3.org/1999/xlink" x="0px" y="0px"
	 viewBox="0 0 512.002 512.002" style="enable-background:new 0 0 512.002 512.002;" xml:space="preserve">
<g>
	<g>
		<path d="M293.234,86.762c-27.574-27.576-64.238-42.761-103.235-42.761c-38.995,0-75.663,15.188-103.236,42.761
			c-22.655,22.655-36.957,51.36-41.361,83.012c-4.26,30.61,1.428,62.377,16.014,89.447c2.621,4.862,8.688,6.679,13.547,4.061
			c4.862-2.62,6.68-8.685,4.061-13.547c-26.172-48.573-17.174-109.774,21.884-148.83c23.798-23.799,55.438-36.904,89.094-36.904
			c33.654,0,65.296,13.106,89.093,36.903c49.126,49.126,49.126,129.061,0,178.188c-39.057,39.059-100.261,48.055-148.832,21.883
			c-4.861-2.618-10.926-0.802-13.547,4.061c-2.621,4.861-0.804,10.926,4.058,13.546c21.208,11.428,45.297,17.394,69.456,17.394
			c6.679,0,13.364-0.456,19.993-1.379c31.651-4.404,60.357-18.707,83.013-41.361C350.158,236.31,350.158,143.687,293.234,86.762z"/>
	</g>
</g>
<g>
	<g>
		<path d="M100.91,279.08c-3.906-3.904-10.236-3.904-14.142,0l-0.088,0.088c-3.905,3.905-3.905,10.237,0,14.143
			c1.953,1.952,4.512,2.929,7.071,2.929s5.118-0.977,7.071-2.929l0.088-0.088C104.815,289.318,104.815,282.986,100.91,279.08z"/>
	</g>
</g>
<g>
	<g>
		<path d="M325.043,56.354l-0.698-0.703c-3.906-3.905-10.236-3.905-14.143,0c-3.905,3.905-3.905,10.237,0,14.143l0.605,0.606
			c1.956,1.983,4.536,2.977,7.118,2.977c2.537,0,5.075-0.959,7.023-2.881C328.88,66.617,328.922,60.286,325.043,56.354z"/>
	</g>
</g>
<g>
	<g>
		<path d="M498.032,430.583L390.006,322.557c3.185-6.862,10.028-11.267,17.636-11.267c10.723,0,19.445,8.723,19.445,19.445V340
			c0,5.522,4.478,10,10,10c5.522,0,10-4.478,10-10v-9.265c0-21.75-17.695-39.444-39.444-39.444
			c-13.013,0-24.929,6.349-32.218,16.684l-21.673-21.673c12.682-21.573,21.072-45.559,24.489-70.522
			c6.128,3.923,13.4,6.208,21.201,6.208c21.75,0,39.444-17.695,39.444-39.444v-19.459c0-21.75-17.695-39.445-39.444-39.445
			c-10.74,0-20.487,4.32-27.607,11.307c-5.253-17.414-12.984-34.076-23.062-49.366c-3.039-4.612-9.244-5.887-13.853-2.847
			c-4.611,3.039-5.886,9.241-2.847,13.853c44.138,66.969,34.94,156.808-21.87,213.618c-32.108,32.109-74.799,49.793-120.205,49.793
			c-45.407,0-88.097-17.684-120.206-49.793C37.683,278.095,20,235.405,20,189.999s17.684-88.097,49.793-120.206
			C126.399,13.183,216.03,3.851,282.92,47.6c4.622,3.023,10.82,1.727,13.843-2.895c3.022-4.622,1.727-10.82-2.896-13.843
			C257.903,7.34,214.411-3.301,171.401,0.907c-38.038,3.72-74.173,18.992-103.381,43.43V34.005
			c0-18.748-15.252-33.999-33.999-33.999S0.021,15.258,0.021,34.005v35.999c0,14.397,8.999,26.724,21.665,31.673
			C7.519,128.594,0,158.716,0,189.999c0,50.749,19.765,98.461,55.65,134.348c1.715,1.715,3.465,3.381,5.232,5.021v22.362
			c0,10.723-8.723,19.445-19.445,19.445s-19.445-8.723-19.445-19.445V332.27c0-5.522-4.478-10-10-10s-10,4.478-10,10v19.459
			c0,21.75,17.695,39.444,39.444,39.444c21.75,0,39.444-17.695,39.444-39.444v-6.133c31.734,22.356,69.5,34.4,109.116,34.4
			c34.44,0,67.478-9.113,96.375-26.181l144.212,144.212c9.008,9.008,20.984,13.969,33.723,13.969
			c12.74,0,24.716-4.961,33.723-13.969C516.626,479.434,516.626,449.178,498.032,430.583z M399.44,143.639
			c10.722,0,19.445,8.723,19.445,19.446v19.459c0,10.722-8.724,19.445-19.445,19.445c-10.723,0-19.446-8.723-19.446-19.445v-19.459
			h0C379.994,152.362,388.718,143.639,399.44,143.639z M20.021,70.005V34.005c0-7.72,6.28-14,14-14c7.72,0,14,6.28,14,14v26.75
			c0,0.9,0.13,1.767,0.353,2.596c-5.849,6.524-11.202,13.386-16.04,20.542C25.408,83.054,20.021,77.152,20.021,70.005z
			 M303.357,342.514c7.36-5.495,14.377-11.556,20.99-18.168c6.581-6.58,12.633-13.617,18.136-21.029l29.28,29.281l-39.161,39.16
			L303.357,342.514z M483.89,483.886c-10.797,10.797-28.365,10.797-39.161,0l-97.985-97.985l39.161-39.16l97.985,97.985
			C494.686,455.522,494.686,473.091,483.89,483.886z"/>
	</g>
</g>
<g>
	<g>
		<path d="M46.781,491.997h-7.944v-68.35c0-4.045-2.437-7.691-6.173-9.239c-3.737-1.546-8.039-0.692-10.898,2.168L2.94,435.402
			c-3.905,3.905-3.905,10.237,0,14.143c3.906,3.904,10.236,3.904,14.143,0l1.755-1.755v44.207h-7.944c-5.522,0-10,4.478-10,10
			s4.478,10,10,10h35.888c5.522,0,10-4.478,10-10S52.304,491.997,46.781,491.997z"/>
	</g>
</g>
<g>
	<g>
		<path d="M135.613,491.997h-7.944v-68.35c0-4.045-2.437-7.691-6.173-9.239c-3.736-1.546-8.038-0.692-10.898,2.168l-18.826,18.826
			c-3.905,3.905-3.905,10.237,0,14.143c3.906,3.904,10.236,3.904,14.143,0l1.755-1.755v44.207h-7.944c-5.522,0-10,4.478-10,10
			s4.478,10,10,10h35.888c5.522,0,10-4.478,10-10S141.135,491.997,135.613,491.997z"/>
	</g>
</g>
<g>
	<g>
		<path d="M313.277,491.997h-7.944v-68.35c0-4.045-2.437-7.691-6.173-9.239c-3.737-1.546-8.038-0.692-10.898,2.168l-18.826,18.826
			c-3.905,3.905-3.905,10.237,0,14.143c3.906,3.904,10.236,3.904,14.143,0l1.755-1.755v44.207h-7.944c-5.522,0-10,4.478-10,10
			s4.478,10,10,10h35.888c5.522,0,10-4.478,10-10S318.799,491.997,313.277,491.997z"/>
	</g>
</g>
<g>
	<g>
		<path d="M206.059,413.648c-21.75,0-39.444,17.695-39.444,39.444v19.46c0,21.75,17.695,39.444,39.444,39.444
			c21.75,0,39.444-17.695,39.444-39.444v-19.459C245.505,431.343,227.809,413.648,206.059,413.648z M225.505,472.553
			c0,10.723-8.723,19.445-19.445,19.445c-10.722,0-19.445-8.723-19.445-19.445v-19.46c0-10.723,8.723-19.445,19.445-19.445
			c10.722,0,19.445,8.723,19.445,19.445V472.553z"/>
	</g>
</g>
<g>
	<g>
		<path d="M502,371.174h-7.944v-68.349c0-4.045-2.437-7.691-6.173-9.239c-3.737-1.545-8.038-0.692-10.898,2.168L458.16,314.58
			c-3.905,3.905-3.905,10.237,0,14.143c3.906,3.904,10.236,3.904,14.143,0l1.755-1.755v44.206h-7.944c-5.522,0-10,4.478-10,10
			s4.478,10,10,10h35.888c5.522,0,10-4.478,10-10S507.522,371.174,502,371.174z"/>
	</g>
</g>
<g>
	<g>
		<path d="M402.109,78.355h-7.944V10.006c0-4.044-2.437-7.691-6.173-9.239c-3.738-1.549-8.039-0.691-10.898,2.167l-18.826,18.826
			c-3.905,3.905-3.905,10.237,0,14.143c3.905,3.905,10.235,3.905,14.141,0l1.755-1.755v44.207h-7.944c-5.522,0-10,4.477-10,10
			s4.478,10,10,10h35.888c5.522,0,10-4.477,10-10S407.631,78.355,402.109,78.355z"/>
	</g>
</g>
<g>
	<g>
		<path d="M472.555,0.006c-21.75,0-39.444,17.695-39.444,39.445V58.91c0,21.75,17.695,39.444,39.444,39.444
			c21.75,0,39.444-17.695,39.444-39.444V39.45C512,17.701,494.304,0.006,472.555,0.006z M492,58.91
			c0,10.722-8.723,19.445-19.445,19.445c-10.722,0-19.445-8.723-19.445-19.445V39.45c0-10.723,8.723-19.446,19.445-19.446
			c10.722,0,19.445,8.723,19.445,19.446V58.91z"/>
	</g>
</g>
<g>
	<g>
		<path d="M502,201.988h-7.944v-68.35c0-4.044-2.437-7.691-6.173-9.239c-3.737-1.548-8.038-0.692-10.898,2.167l-18.826,18.826
			c-3.905,3.905-3.905,10.237,0,14.143c3.906,3.905,10.236,3.905,14.143,0l1.755-1.755v44.207h-7.944c-5.522,0-10,4.477-10,10
			s4.478,10,10,10h35.888c5.522,0,10-4.477,10-10S507.522,201.988,502,201.988z"/>
	</g>
</g>
<g>
	<g>
		<path d="M271.99,227.005h-11.532v-84.013c-0.001-4.045-2.438-7.691-6.174-9.239c-3.737-1.548-8.039-0.691-10.898,2.168
			l-22.589,22.59c-3.905,3.905-3.905,10.237,0,14.142c3.906,3.905,10.236,3.905,14.143,0l5.518-5.518v59.87h-11.531
			c-5.522,0-10,4.477-10,10s4.478,10,10,10h43.062c5.522,0,10-4.477,10-10S277.512,227.005,271.99,227.005z"/>
	</g>
</g>
<g>
	<g>
		<path d="M143.339,132.992c-24.996,0-45.331,20.336-45.331,45.331v23.35c0,24.997,20.336,45.331,45.331,45.331
			s45.331-20.336,45.331-45.331v-23.35C188.67,153.327,168.334,132.992,143.339,132.992z M168.67,201.673
			c0,13.968-11.364,25.332-25.332,25.332s-25.332-11.364-25.332-25.332v-23.35c0-13.968,11.364-25.332,25.332-25.332
			s25.332,11.364,25.332,25.332V201.673z"/>
	</g>
</g>
<g>
</g>
<g>
</g>
<g>
</g>
<g>
</g>
<g>
</g>
<g>
</g>
<g>
</g>
<g>
</g>
<g>
</g>
<g>
</g>
<g>
</g>
<g>
</g>
<g>
</g>
<g>
</g>
<g>
</g>
</svg>
