<svg class="ldi-r796sq" width="200px"  height="200px"  xmlns="http://www.w3.org/2000/svg" xmlns:xlink="http://www.w3.org/1999/xlink" viewBox="0 0 100 100" preserveAspectRatio="xMidYMid" style="background: none;"><!--?xml version="1.0" encoding="utf-8"?--><!--Generator: Adobe Illustrator 21.0.0, SVG Export Plug-In . SVG Version: 6.00 Build 0)--><svg version="1.1" id="圖層_1" xmlns="http://www.w3.org/2000/svg" xmlns:xlink="http://www.w3.org/1999/xlink" x="0px" y="0px" viewBox="0 0 100 100" style="transform-origin: 50px 50px 0px;" xml:space="preserve"><g style="transform-origin: 50px 50px 0px;"><g style="transform-origin: 50px 50px 0px; transform: scale(0.6);"><g style="transform-origin: 50px 50px 0px;"><g><style type="text/css" class="ld ld-breath" style="transform-origin: 50px 50px 0px; animation-duration: 1s; animation-delay: -1s; animation-direction: normal;">.st0{fill:#E15B64;} .st1{fill:#FFFFFF;} .st2{opacity:0.9;fill:#A0C8D7;} .st3{fill:#333333;} .st4{fill:#662D91;} .st5{fill:#A0C8D7;} .st6{fill:#ABBD81;} .st7{fill:#F47E60;} .st8{fill:#FFDC6C;} .st9{fill:#F2F2F2;} .st10{fill:#FCEE21;} .st11{fill:#EEF4DC;} .st12{fill:#F5E6C8;} .st13{fill:#C33737;} .st14{fill:#666666;} .st15{fill:#CCCCCC;} .st16{fill:#FFC28A;} .st17{fill:#4D4D4D;} .st18{fill:#999999;} .st19{fill:#29ABE2;} .st20{fill:#166496;} .st21{fill:#0071BC;} .st22{fill:#F7931E;} .st23{fill:#3E4D8A;} .st24{fill:#ED1E79;} .st25{fill:#9E005D;} .st26{fill:#D4145A;} .st27{fill:none;} .st28{fill:#ED1C24;} .st29{fill:#F15A24;} .st30{fill:#FBB03B;} .st31{fill:#C7B299;} .st32{fill:none;stroke:#FFFFFF;stroke-width:4;stroke-linecap:round;stroke-miterlimit:10;} .st33{fill:#C69C6D;} .st34{fill:#808080;} .st35{fill:#39B54A;} .st36{fill:#F6FF3F;} .st37{fill:#FF0000;} .st38{fill:#603813;} .st39{fill:#42210B;} .st40{fill:#1A1A1A;} .st41{fill:#FFD6B0;} .st42{fill:#C28851;} .st43{fill:#FFC28A;stroke:#FFFFFF;stroke-width:2;stroke-miterlimit:10;} .st44{fill:#009245;} .st45{fill:none;stroke:#333333;stroke-linecap:round;stroke-miterlimit:10;} .st46{fill:#E0E0E0;} .st47{fill:#C59B6D;} .st48{fill:#3399CC;} .st49{fill:#9F69B8;} .st50{fill:#EFBF4E;} .st51{fill:#353035;} .st52{fill:#77A4BD;} .st53{fill:#131F25;} .st54{fill:#494B32;} .st55{fill:none;stroke:#754C24;stroke-miterlimit:10;} .st56{fill:#754C24;} .st57{fill:#B2A44F;} .st58{fill:#48462D;} .st59{opacity:0.6;fill:#F73D7E;} .st60{opacity:0.8;fill:#F73D7E;} .st61{fill:#F73D7E;} .st62{opacity:0.59;fill:#3399CC;} .st63{fill:#DBDBDB;} .st64{fill:#3FAB4B;} .st65{fill:#E3A735;} .st66{fill:#E48E11;} .st67{fill:#A67C52;} .st68{fill:#8C6239;} .st69{fill:#666666;stroke:#F2F2F2;stroke-width:1.5;stroke-miterlimit:10;} .st70{fill:none;stroke:#333333;stroke-width:1.5;stroke-miterlimit:10;} .st71{fill:#62A562;} .st72{opacity:0.76;fill:#2E6045;} .st73{fill:#2E6045;} .st74{opacity:0.8;fill:#2E6045;} .st75{fill:#F8B26A;stroke:#231815;stroke-miterlimit:10;} .st76{fill:#F1F5DB;} .st77{fill:#FEAE01;} .st78{fill:#FF9400;} .st79{fill:none;stroke:#B3B3B3;stroke-width:3;stroke-miterlimit:10;} .st80{fill:#B3B3B3;} .st81{fill:none;stroke:#000000;stroke-width:1.5;stroke-miterlimit:10;} .st82{fill:none;stroke:#754C24;stroke-width:3;stroke-miterlimit:10;} .st83{fill:#C5C2BA;} .st84{fill:#E62B0F;} .st85{fill:#F2E336;} .st86{fill:#96AB5F;} .st87{fill:#C0996D;} .st88{fill:#573E31;} .st89{fill:none;stroke:#754C24;stroke-width:2;stroke-linecap:round;stroke-miterlimit:10;} .st90{fill:#534741;} .st91{fill:#F8B26A;} .st92{fill:#F8B26A;stroke:#F2F2F2;stroke-width:0.4104;stroke-miterlimit:10;} .st93{fill:none;stroke:#FFFFFF;stroke-width:1.8418;stroke-miterlimit:10;} .st94{fill:#F73D7E;stroke:#FFFFFF;stroke-width:1.5;stroke-miterlimit:10;} .st95{fill:#F8B26A;stroke:#FFFFFF;stroke-width:2.2377;stroke-miterlimit:10;} .st96{fill:#C33737;stroke:#FFFFFF;stroke-width:1.1035;stroke-miterlimit:10;} .st97{fill:none;stroke:#333333;stroke-width:3.876;stroke-miterlimit:10;} .st98{fill:#31F294;} .st99{fill:#66503A;} .st100{fill:#E15C65;} .st101{opacity:0.9;fill:#ABBD81;} .st102{fill:#FFFFFF;stroke:#333333;stroke-width:3;stroke-linejoin:round;stroke-miterlimit:10;} .st103{fill:#A0C8D7;stroke:#333333;stroke-width:2;stroke-linejoin:round;stroke-miterlimit:10;} .st104{fill:#ABBD81;stroke:#333333;stroke-width:2;stroke-linejoin:round;stroke-miterlimit:10;}</style><g class="ld ld-breath" style="transform-origin: 50px 50px 0px; animation-duration: 1s; animation-delay: -0.962963s; animation-direction: normal;"><path class="st0" d="M63.833,40.374c-8.612-8.612-19.241-11.944-23.742-7.443c-0.938,0.938-1.517,2.154-1.798,3.551l-22.16,43.776 c-1.445,1.445-0.866,4.366,1.292,6.524s5.079,2.737,6.524,1.292l43.776-22.16c1.397-0.281,2.613-0.859,3.551-1.798 C75.777,59.615,72.445,48.985,63.833,40.374z" fill="rgb(225, 91, 100)" stroke="rgb(51, 51, 51)" style="fill: rgb(225, 91, 100); stroke: rgb(51, 51, 51);"></path></g><g class="ld ld-breath" style="transform-origin: 50px 50px 0px; animation-duration: 1s; animation-delay: -0.925926s; animation-direction: normal;"><path class="st13" d="M64.024,40.183c-8.813-8.813-19.692-12.223-24.298-7.617c-0.96,0.96-1.553,2.204-1.84,3.634 c-1.091,5.429,2.481,13.688,9.457,20.664c6.976,6.976,15.234,10.548,20.664,9.457c1.43-0.287,2.674-0.88,3.634-1.84 C76.247,59.875,72.837,48.996,64.024,40.183z" fill="rgb(195, 55, 55)" style="fill: rgb(195, 55, 55);"></path></g><g class="ld ld-breath" style="transform-origin: 50px 50px 0px; animation-duration: 1s; animation-delay: -0.888889s; animation-direction: normal;"><circle class="st5" cx="67.115" cy="27.842" r="3.746" fill="rgb(160, 200, 215)" style="fill: rgb(160, 200, 215);"></circle></g><g class="ld ld-breath" style="transform-origin: 50px 50px 0px; animation-duration: 1s; animation-delay: -0.851852s; animation-direction: normal;"><circle class="st6" cx="81.925" cy="19.141" r="5.417" fill="rgb(171, 189, 129)" style="fill: rgb(171, 189, 129);"></circle></g><g class="ld ld-breath" style="transform-origin: 50px 50px 0px; animation-duration: 1s; animation-delay: -0.814815s; animation-direction: normal;"><circle class="st91" cx="13.695" cy="46.571" r="4.264" fill="rgb(248, 178, 106)" style="fill: rgb(248, 178, 106);"></circle></g><g class="ld ld-breath" style="transform-origin: 50px 50px 0px; animation-duration: 1s; animation-delay: -0.777778s; animation-direction: normal;"><circle class="st5" cx="87.342" cy="66.279" r="3.227" fill="rgb(160, 200, 215)" style="fill: rgb(160, 200, 215);"></circle></g><g style="transform-origin: 50px 50px 0px;"><g><g class="ld ld-breath" style="transform-origin: 50px 50px 0px; animation-duration: 1s; animation-delay: -0.740741s; animation-direction: normal;"><path class="st5" d="M49.999,41.615c-0.242,0-0.487-0.063-0.71-0.196c-0.656-0.393-0.869-1.243-0.476-1.897 c6.352-10.604,6.799-20.403,1.368-29.955c-0.378-0.664-0.146-1.508,0.519-1.885c0.66-0.377,1.507-0.147,1.885,0.519 C58.471,18.551,58,29.568,51.187,40.943C50.927,41.376,50.469,41.615,49.999,41.615z" fill="rgb(160, 200, 215)" style="fill: rgb(160, 200, 215);"></path></g></g></g><g style="transform-origin: 50px 50px 0px;"><g><g class="ld ld-breath" style="transform-origin: 50px 50px 0px; animation-duration: 1s; animation-delay: -0.703704s; animation-direction: normal;"><path class="st6" d="M60.748,56.926c-0.201,0-0.405-0.043-0.599-0.137c-0.688-0.33-0.978-1.157-0.646-1.846 c6.034-12.548,17.871-18.149,29.464-13.937c0.718,0.261,1.088,1.055,0.827,1.773c-0.261,0.718-1.054,1.089-1.773,0.827 c-10.341-3.76-20.558,1.16-26.027,12.536C61.758,56.637,61.263,56.926,60.748,56.926z" fill="rgb(171, 189, 129)" style="fill: rgb(171, 189, 129);"></path></g></g></g><g style="transform-origin: 50px 50px 0px;"><g><g class="ld ld-breath" style="transform-origin: 50px 50px 0px; animation-duration: 1s; animation-delay: -0.666667s; animation-direction: normal;"><path class="st6" d="M30.637,37.719c-0.148,0-0.297-0.023-0.445-0.074c-0.723-0.246-1.11-1.031-0.864-1.754 c2.63-7.738,1.474-15.193-3.533-22.79c-0.42-0.637-0.245-1.496,0.393-1.915c0.637-0.42,1.496-0.245,1.915,0.393 c5.433,8.241,6.726,16.72,3.843,25.201C31.751,37.357,31.214,37.719,30.637,37.719z" fill="rgb(171, 189, 129)" style="fill: rgb(171, 189, 129);"></path></g></g></g><g style="transform-origin: 50px 50px 0px;"><g><g class="ld ld-breath" style="transform-origin: 50px 50px 0px; animation-duration: 1s; animation-delay: -0.62963s; animation-direction: normal;"><path class="st91" d="M76.055,89.711c-0.706,0-1.379-0.114-2.021-0.342c-2.548-0.906-4.394-3.464-5.641-7.82 c-0.763-3.191-1.961-5.123-3.576-5.802c-1.736-0.729-4.213-0.144-7.357,1.745c-4.978,2.858-8.9,3.547-12.012,2.12 c-3.08-1.414-5.095-4.796-6.159-10.341c-0.144-0.75,0.347-1.475,1.098-1.618c0.745-0.146,1.474,0.347,1.618,1.098 c0.872,4.539,2.418,7.348,4.597,8.347c2.209,1.015,5.392,0.343,9.458-1.99c3.975-2.387,7.196-3.015,9.831-1.91 c2.473,1.04,4.216,3.613,5.179,7.65c0.954,3.329,2.269,5.339,3.893,5.917c1.448,0.512,3.375-0.059,5.731-1.7 c0.626-0.438,1.489-0.284,1.925,0.344c0.437,0.627,0.283,1.488-0.344,1.925C80.002,88.915,77.919,89.711,76.055,89.711z" fill="rgb(248, 178, 106)" style="fill: rgb(248, 178, 106);"></path></g></g></g><g class="ld ld-breath" style="transform-origin: 50px 50px 0px; animation-duration: 1s; animation-delay: -0.592593s; animation-direction: normal;"><circle class="st6" cx="55.503" cy="89.647" r="2.853" fill="rgb(171, 189, 129)" style="fill: rgb(171, 189, 129);"></circle></g><g class="ld ld-breath" style="transform-origin: 50px 50px 0px; animation-duration: 1s; animation-delay: -0.555556s; animation-direction: normal;"><polygon class="st91" points="38.014,15.107 39.166,22.253 46.081,24.558 43.776,17.181 " fill="rgb(248, 178, 106)" style="fill: rgb(248, 178, 106);"></polygon></g><g class="ld ld-breath" style="transform-origin: 50px 50px 0px; animation-duration: 1s; animation-delay: -0.518519s; animation-direction: normal;"><polygon class="st91" points="81.925,50.835 79.966,55.543 81.925,58.673 87.342,54.754 " fill="rgb(248, 178, 106)" style="fill: rgb(248, 178, 106);"></polygon></g><metadata xmlns:d="https://loading.io/stock/" class="ld ld-breath" style="transform-origin: 50px 50px 0px; animation-duration: 1s; animation-delay: -0.481481s; animation-direction: normal;">
<d:name class="ld ld-breath" style="transform-origin: 50px 50px 0px; animation-duration: 1s; animation-delay: -0.444444s; animation-direction: normal;">cheers</d:name>
<d:tags class="ld ld-breath" style="transform-origin: 50px 50px 0px; animation-duration: 1s; animation-delay: -0.407407s; animation-direction: normal;">celebrate,win,party,happy birthday,festival,enjoy,cracker,cheers,people</d:tags>
<d:license class="ld ld-breath" style="transform-origin: 50px 50px 0px; animation-duration: 1s; animation-delay: -0.37037s; animation-direction: normal;">rf</d:license>
<d:slug class="ld ld-breath" style="transform-origin: 50px 50px 0px; animation-duration: 1s; animation-delay: -0.333333s; animation-direction: normal;">r796sq</d:slug>
</metadata></g></g></g></g><style type="text/css" class="ld ld-breath" style="transform-origin: 50px 50px 0px; animation-duration: 1s; animation-delay: -0.296296s; animation-direction: normal;">path,ellipse,circle,rect,polygon,polyline,line { stroke-width: 0; }@keyframes ld-breath {
  0% {
    -webkit-transform: scale(0.86);
    transform: scale(0.86);
  }
  50% {
    -webkit-transform: scale(1.06);
    transform: scale(1.06);
  }
  100% {
    -webkit-transform: scale(0.86);
    transform: scale(0.86);
  }
}
@-webkit-keyframes ld-breath {
  0% {
    -webkit-transform: scale(0.86);
    transform: scale(0.86);
  }
  50% {
    -webkit-transform: scale(1.06);
    transform: scale(1.06);
  }
  100% {
    -webkit-transform: scale(0.86);
    transform: scale(0.86);
  }
}
.ld.ld-breath {
  -webkit-animation: ld-breath 1s infinite;
  animation: ld-breath 1s infinite;
}
</style></svg></svg>