<svg class="ldi-pnlw8g" width="200px"  height="200px"  xmlns="http://www.w3.org/2000/svg" xmlns:xlink="http://www.w3.org/1999/xlink" viewBox="0 0 100 100" preserveAspectRatio="xMidYMid" style="background: none;"><!--?xml version="1.0" encoding="utf-8"?--><!--Generator: Adobe Illustrator 21.0.0, SVG Export Plug-In . SVG Version: 6.00 Build 0)--><svg version="1.1" id="圖層_1" xmlns="http://www.w3.org/2000/svg" xmlns:xlink="http://www.w3.org/1999/xlink" x="0px" y="0px" viewBox="0 0 100 100" style="transform-origin: 50px 50px 0px;" xml:space="preserve"><g style="transform-origin: 50px 50px 0px;"><g style="transform-origin: 50px 50px 0px; transform: scale(0.6);"><g style="transform-origin: 50px 50px 0px;"><g><style type="text/css" class="ld ld-breath" style="transform-origin: 50px 50px 0px; animation-duration: 1s; animation-delay: -1s; animation-direction: normal;">.st0{fill:#C7B299;stroke:#333333;stroke-width:6;stroke-miterlimit:10;} .st1{fill:#F5E169;} .st2{fill:#666666;} .st3{fill:#F5E6C8;} .st4{fill:#333333;} .st5{fill:#E0E0E0;} .st6{fill:#F8B26A;} .st7{fill:#FFFFFF;stroke:#000000;stroke-width:4;stroke-miterlimit:10;} .st8{fill:#F47E60;} .st9{fill:#ABBD81;} .st10{fill:#E15B64;} .st11{fill:#666666;stroke:#221E1F;stroke-width:4.5;stroke-linejoin:round;stroke-miterlimit:10;} .st12{fill:#FFFFFF;stroke:#221E1F;stroke-width:6;stroke-linejoin:round;stroke-miterlimit:10;} .st13{fill:#77A4BD;} .st14{fill:#FFDC6C;} .st15{fill:#FFFFFF;} .st16{fill:#353035;} .st17{fill:#E0E0E0;stroke:#000000;stroke-width:6;stroke-miterlimit:10;} .st18{fill:none;stroke:#000000;stroke-width:5;stroke-linecap:round;stroke-miterlimit:10;} .st19{fill:none;stroke:#000000;stroke-width:5;stroke-miterlimit:10;} .st20{fill:none;} .st21{fill:#666666;stroke:#221E1F;stroke-width:6;stroke-linejoin:round;stroke-miterlimit:10;} .st22{fill:#FFFFFF;stroke:#221E1F;stroke-width:4.5;stroke-linejoin:round;stroke-miterlimit:10;} .st23{fill:#333333;stroke:#221E1F;stroke-width:4.5;stroke-linejoin:round;stroke-miterlimit:10;} .st24{fill:#1BD112;} .st25{fill:#FFFFFF;stroke:#333333;stroke-width:8;stroke-miterlimit:10;} .st26{fill:none;stroke:#666666;stroke-width:8;stroke-miterlimit:10;} .st27{fill:#FFFFFF;stroke:#333333;stroke-miterlimit:10;} .st28{fill:none;stroke:#333333;stroke-miterlimit:10;} .st29{stroke:#333333;stroke-miterlimit:10;} .st30{fill:none;stroke:#000000;stroke-width:4;stroke-linecap:round;stroke-miterlimit:10;} .st31{fill:none;stroke:#000000;stroke-width:6;stroke-miterlimit:10;} .st32{fill:#C33737;} .st33{fill:#849B87;} .st34{fill:#66503A;} .st35{fill:none;stroke:#333333;stroke-width:6;stroke-miterlimit:10;} .st36{fill:none;stroke:#333333;stroke-width:4;stroke-miterlimit:10;} .st37{fill:#C59B6D;} .st38{fill:#E0E0E0;stroke:#221E1F;stroke-width:4.5;stroke-linejoin:round;stroke-miterlimit:10;} .st39{fill:#666666;stroke:#000000;stroke-width:3;stroke-miterlimit:10;} .st40{fill:#F5E6C8;stroke:#000000;stroke-width:3;stroke-miterlimit:10;} .st41{fill:#FFFFFF;stroke:#808080;stroke-width:4;stroke-miterlimit:10;} .st42{fill:#808080;stroke:#808080;stroke-width:4;stroke-miterlimit:10;} .st43{fill:#666666;stroke:#B3B3B3;stroke-width:12;stroke-linecap:round;stroke-miterlimit:10;} .st44{fill:#808080;} .st45{fill:#B3B3B3;} .st46{fill:#FFFF00;stroke:#E15B64;stroke-width:6;stroke-linecap:round;stroke-linejoin:round;stroke-miterlimit:10;} .st47{fill:none;stroke:#E15B64;stroke-width:6;stroke-linecap:round;stroke-linejoin:round;stroke-miterlimit:10;} .st48{fill:#F5E6C8;stroke:#333333;stroke-width:4;stroke-miterlimit:10;}</style><g class="ld ld-breath" style="transform-origin: 50px 50px 0px; animation-duration: 1s; animation-delay: -0.923077s; animation-direction: normal;"><path class="st39" d="M83.8,53.1c-0.4-0.3-0.9-0.5-1.4-0.7c4.2-2.8,6.8-7.9,5.8-13.5c-1-5.7-5.8-10.2-11.5-10.8 c-8.1-0.9-14.9,5.4-14.9,13.2c0,4.7,2.4,8.7,6,11.1c-0.5,0.2-0.9,0.4-1.4,0.7c-5.2,3-8.7,8.6-8.7,15v11.4c0,3.3,2.7,6,6,6h11.4h11.4 c3.3,0,6-2.7,6-6V68.2C92.5,61.7,89,56.1,83.8,53.1z" fill="#666666" stroke="rgb(0, 0, 0)" style="fill: rgb(102, 102, 102); stroke: rgb(0, 0, 0);"></path></g><g class="ld ld-breath" style="transform-origin: 50px 50px 0px; animation-duration: 1s; animation-delay: -0.846154s; animation-direction: normal;"><path class="st39" d="M16.2,53.1c0.4-0.3,0.9-0.5,1.4-0.7c-4.2-2.8-6.8-7.9-5.8-13.5c1-5.7,5.8-10.2,11.5-10.8 c8.1-0.9,14.9,5.4,14.9,13.2c0,4.7-2.4,8.7-6,11.1c0.5,0.2,0.9,0.4,1.4,0.7c5.2,3,8.7,8.6,8.7,15v11.4c0,3.3-2.7,6-6,6H24.9H13.5 c-3.3,0-6-2.7-6-6V68.2C7.5,61.7,11,56.1,16.2,53.1z" fill="#666666" stroke="rgb(0, 0, 0)" style="fill: rgb(102, 102, 102); stroke: rgb(0, 0, 0);"></path></g><g class="ld ld-breath" style="transform-origin: 50px 50px 0px; animation-duration: 1s; animation-delay: -0.769231s; animation-direction: normal;"><path class="st40" d="M62.1,45c-0.6-0.3-1.2-0.6-1.9-0.9c5.8-3.8,9.4-10.9,8-18.7c-1.4-7.9-8-14.1-16-15 c-11.1-1.3-20.6,7.4-20.6,18.3c0,6.4,3.3,12.1,8.3,15.4c-0.6,0.3-1.3,0.6-1.9,0.9c-7.2,4.1-12,11.9-12,20.8v15.7 c0,4.6,3.7,8.3,8.3,8.3h15.7h15.7c4.6,0,8.3-3.7,8.3-8.3V65.8C74.2,56.9,69.3,49.1,62.1,45z" stroke="rgb(0, 0, 0)" fill="#000000" style="stroke: rgb(0, 0, 0); fill: rgb(0, 0, 0);"></path></g><metadata xmlns:d="https://loading.io/stock/" class="ld ld-breath" style="transform-origin: 50px 50px 0px; animation-duration: 1s; animation-delay: -0.692308s; animation-direction: normal;">
<d:name class="ld ld-breath" style="transform-origin: 50px 50px 0px; animation-duration: 1s; animation-delay: -0.615385s; animation-direction: normal;">users</d:name>
<d:tags class="ld ld-breath" style="transform-origin: 50px 50px 0px; animation-duration: 1s; animation-delay: -0.538462s; animation-direction: normal;">group,team,member,platoon,squad,users,web application</d:tags>
<d:license class="ld ld-breath" style="transform-origin: 50px 50px 0px; animation-duration: 1s; animation-delay: -0.461538s; animation-direction: normal;">cc-by</d:license>
<d:slug class="ld ld-breath" style="transform-origin: 50px 50px 0px; animation-duration: 1s; animation-delay: -0.384615s; animation-direction: normal;">pnlw8g</d:slug>
</metadata></g></g></g></g><style type="text/css" class="ld ld-breath" style="transform-origin: 50px 50px 0px; animation-duration: 1s; animation-delay: -0.307692s; animation-direction: normal;">path,ellipse,circle,rect,polygon,polyline,line { stroke-width: 0; }@keyframes ld-breath {
  0% {
    -webkit-transform: scale(0.86);
    transform: scale(0.86);
  }
  50% {
    -webkit-transform: scale(1.06);
    transform: scale(1.06);
  }
  100% {
    -webkit-transform: scale(0.86);
    transform: scale(0.86);
  }
}
@-webkit-keyframes ld-breath {
  0% {
    -webkit-transform: scale(0.86);
    transform: scale(0.86);
  }
  50% {
    -webkit-transform: scale(1.06);
    transform: scale(1.06);
  }
  100% {
    -webkit-transform: scale(0.86);
    transform: scale(0.86);
  }
}
.ld.ld-breath {
  -webkit-animation: ld-breath 1s infinite;
  animation: ld-breath 1s infinite;
}
</style></svg></svg>