<svg class="ldi-qn01yo" width="200px"  height="200px"  xmlns="http://www.w3.org/2000/svg" xmlns:xlink="http://www.w3.org/1999/xlink" viewBox="0 0 100 100" preserveAspectRatio="xMidYMid" style="background: none;"><!--?xml version="1.0" encoding="utf-8"?--><!--Generator: Adobe Illustrator 21.0.0, SVG Export Plug-In . SVG Version: 6.00 Build 0)--><svg version="1.1" id="圖層_1" xmlns="http://www.w3.org/2000/svg" xmlns:xlink="http://www.w3.org/1999/xlink" x="0px" y="0px" viewBox="0 0 100 100" style="transform-origin: 50px 50px 0px;" xml:space="preserve"><g style="transform-origin: 50px 50px 0px;"><g style="transform-origin: 50px 50px 0px; transform: scale(0.6);"><g style="transform-origin: 50px 50px 0px;"><g><style type="text/css" class="ld ld-fade" style="transform-origin: 50px 50px 0px; animation-duration: 1.5s; animation-delay: -1.5s; animation-direction: normal;">.st0{fill:none}.st1,.st2{fill:#a0c8d7;stroke:#333;stroke-width:3.5;stroke-linecap:round;stroke-miterlimit:10}.st2{fill:#e15b64}.st3{opacity:.2}.st4,.st5{stroke:#000;stroke-width:3.5;stroke-linecap:round;stroke-miterlimit:10}.st5{opacity:.2}.st6{fill:#e0e0e0;stroke:#333}.st6,.st7,.st8{stroke-width:3.5;stroke-miterlimit:10}.st7{opacity:.2;stroke-linejoin:round;stroke:#000}.st8{fill:#666;stroke:#333;stroke-linecap:round}.st9{fill:#333}.st10{fill:#e0e0e0;stroke:#333;stroke-width:3.5;stroke-linecap:round;stroke-miterlimit:10}.st11{fill:#fdfdfd}.st12,.st13,.st14,.st15{fill:#f5e6c8;stroke:#333;stroke-width:3.5;stroke-linecap:round;stroke-miterlimit:10}.st13,.st14,.st15{fill:url(#SVGID_1_)}.st14,.st15{fill:none}.st15{fill:url(#SVGID_2_)}.st16{fill:#666}.st17{fill:#fff;stroke:#333;stroke-width:3.5;stroke-linecap:round;stroke-miterlimit:10}.st18{fill:#e15b64}.st19{fill:#f47e60}.st20{fill:#f8b26a}.st21{fill:#abbd81}.st22{fill:#a0c8d7}.st23{fill:#ac749c}.st24{fill:#f47e60;stroke:#333;stroke-linecap:round;stroke-linejoin:round}.st24,.st25,.st26{stroke-width:3.5;stroke-miterlimit:10}.st25{opacity:.2;stroke-linecap:round;stroke-linejoin:round;stroke:#000}.st26{fill:none;stroke:#fff}.st26,.st27,.st28{stroke-linecap:round;stroke-linejoin:round}.st27{stroke:#333;stroke-width:3.5;stroke-miterlimit:10;fill:#a0c8d7}.st28{fill:#77a4bd}.st28,.st29,.st30,.st31,.st32{stroke:#333;stroke-width:3.5;stroke-miterlimit:10}.st29{stroke-linecap:round;stroke-linejoin:round;fill:#e0e0e0}.st30,.st31,.st32{fill:#fff}.st31,.st32{stroke-linejoin:round}.st32{fill:none;stroke-linecap:round}.st33{fill:#e15b64;stroke:#333}.st33,.st34,.st35,.st36{stroke-width:3.5;stroke-linecap:round;stroke-linejoin:round;stroke-miterlimit:10}.st34{fill:#c33737;stroke:#333}.st35,.st36{stroke:#000}.st36{fill:none;stroke:#fff;stroke-width:5}.st37{fill:#fff}.st38{fill:#333;stroke:#fff}.st38,.st39,.st40{stroke-width:3.5;stroke-miterlimit:10}.st39{opacity:.2;stroke:#000}.st40{fill:#666;stroke:#333}.st41{fill:none;stroke:#333}.st41,.st42,.st43,.st44,.st45,.st46,.st47{stroke-width:3.5;stroke-miterlimit:10}.st42{fill:none;stroke-linecap:round;stroke:#fff}.st43,.st44,.st45,.st46,.st47{stroke:#333;stroke-linejoin:round}.st43{stroke-linecap:round;fill:#849b87}.st44,.st45,.st46,.st47{fill:#e0e0e0}.st45,.st46,.st47{fill:#abbd81;stroke-linecap:round}.st46,.st47{fill:#f5e6c8}.st47{fill:#fff}.st48{fill:#f5e169}.st49{fill:#f5e6c8}.st50{fill:#666;stroke-linecap:round;stroke-linejoin:round}.st50,.st51,.st52,.st53,.st54,.st55,.st56,.st57,.st58{stroke:#333;stroke-width:3.5;stroke-miterlimit:10}.st51{stroke-linecap:round;stroke-linejoin:round;fill:#333}.st52,.st53,.st54,.st55,.st56,.st57,.st58{fill:#e15b64}.st53,.st54,.st55,.st56,.st57,.st58{fill:#f5e169}.st54,.st55,.st56,.st57,.st58{fill:#f47e60;stroke-linecap:round}.st55,.st56,.st57,.st58{fill:#f8b26a}.st56,.st57,.st58{fill:#abbd81}.st57,.st58{fill:url(#SVGID_3_)}.st58{fill:#e15b64;stroke:#fff}.st59,.st60,.st61,.st62,.st63,.st64{fill:#abbd80;stroke:#333;stroke-width:3.5;stroke-miterlimit:10}.st60,.st61,.st62,.st63,.st64{fill:#839a86}.st61,.st62,.st63,.st64{fill:#f3e5c7}.st62,.st63,.st64{fill:#333}.st63,.st64{fill:#e0e0e0;stroke:#fff;stroke-linecap:round}.st64{fill:url(#SVGID_4_);stroke:#333}.st65{fill:url(#SVGID_5_);stroke:#333;stroke-linejoin:round}.st65,.st66,.st67{stroke-width:3.5;stroke-miterlimit:10}.st66{stroke:#333;stroke-linejoin:round;fill:url(#SVGID_6_)}.st67{fill:url(#SVGID_7_)}.st67,.st68,.st69{stroke:#333;stroke-linejoin:round}.st68{stroke-width:3.5;stroke-miterlimit:10;fill:url(#SVGID_8_)}.st69{fill:url(#SVGID_9_)}.st69,.st70,.st71{stroke-width:3.5;stroke-miterlimit:10}.st70{stroke:#333;stroke-linejoin:round;fill:#c33737}.st71{fill:#e15b64}.st71,.st72,.st73{stroke:#333;stroke-linejoin:round}.st72{stroke-width:3.5;stroke-miterlimit:10;fill:#f47e60}.st73{fill:#f8b26a}.st73,.st74,.st75{stroke-width:3.5;stroke-miterlimit:10}.st74{stroke-linejoin:round;fill:#f5e6c8;stroke:#333}.st75{fill:#a0c8d7;stroke:#fff;stroke-linecap:round}.st76{fill:#abbd81;stroke:#333}.st76,.st77,.st78,.st79,.st80{stroke-width:3.5;stroke-miterlimit:10}.st77{fill:#333;stroke-linecap:round;stroke:#333}.st78,.st79,.st80{stroke:#fff}.st78{stroke-linecap:round;fill:#333}.st79,.st80{fill:none}.st80{stroke:#e15b64;stroke-linecap:round}</style><g class="ld ld-fade" style="transform-origin: 50px 50px 0px; animation-duration: 1.5s; animation-delay: -1.44s; animation-direction: normal;"><polygon class="st9" points="17.7,12.5 17,12.5 15.4,12.5 15.4,14.9 17,14.9 17,32.8 19.3,32.8 19.3,12.5 " fill="rgb(51, 51, 51)" style="fill: rgb(51, 51, 51);"></polygon></g><g class="ld ld-fade" style="transform-origin: 50px 50px 0px; animation-duration: 1.5s; animation-delay: -1.38s; animation-direction: normal;"><path class="st9" d="M33.8,11.4c-4.6,0-8.4,5-8.4,11.2c0,6.2,3.8,11.2,8.4,11.2s8.4-5,8.4-11.2C42.2,16.5,38.4,11.4,33.8,11.4z M33.8,13.5c2,0,3.8,1.4,5,3.5L28,26.3c-0.3-1.1-0.5-2.3-0.5-3.6C27.4,17.6,30.3,13.5,33.8,13.5z M33.8,31.9c-2,0-3.8-1.4-5-3.5 L39.6,19c0.3,1.1,0.5,2.4,0.5,3.7C40.1,27.7,37.3,31.9,33.8,31.9z" fill="rgb(51, 51, 51)" style="fill: rgb(51, 51, 51);"></path></g><g class="ld ld-fade" style="transform-origin: 50px 50px 0px; animation-duration: 1.5s; animation-delay: -1.32s; animation-direction: normal;"><polygon class="st9" points="49.3,12.5 48.6,12.5 47,12.5 47,14.9 48.6,14.9 48.6,32.8 50.9,32.8 50.9,12.5 " fill="rgb(51, 51, 51)" style="fill: rgb(51, 51, 51);"></polygon></g><g class="ld ld-fade" style="transform-origin: 50px 50px 0px; animation-duration: 1.5s; animation-delay: -1.26s; animation-direction: normal;"><path class="st9" d="M65.4,11.4c-4.6,0-8.4,5-8.4,11.2c0,6.2,3.8,11.2,8.4,11.2s8.4-5,8.4-11.2C73.8,16.5,70,11.4,65.4,11.4z M65.4,13.5c2,0,3.8,1.4,5,3.5l-10.8,9.3C59.2,25.2,59,24,59,22.7C59,17.6,61.9,13.5,65.4,13.5z M65.4,31.9c-2,0-3.8-1.4-5-3.5 L71.2,19c0.3,1.1,0.5,2.4,0.5,3.7C71.7,27.7,68.9,31.9,65.4,31.9z" fill="rgb(51, 51, 51)" style="fill: rgb(51, 51, 51);"></path></g><g class="ld ld-fade" style="transform-origin: 50px 50px 0px; animation-duration: 1.5s; animation-delay: -1.2s; animation-direction: normal;"><polygon class="st9" points="80.9,12.5 80.2,12.5 78.6,12.5 78.6,14.9 80.2,14.9 80.2,32.8 82.5,32.8 82.5,12.5 " fill="rgb(51, 51, 51)" style="fill: rgb(51, 51, 51);"></polygon></g><g class="ld ld-fade" style="transform-origin: 50px 50px 0px; animation-duration: 1.5s; animation-delay: -1.14s; animation-direction: normal;"><polygon class="st9" points="33.9,39.9 33.2,39.9 31.6,39.9 31.6,42.2 33.2,42.2 33.2,60.1 35.5,60.1 35.5,39.9 " fill="rgb(51, 51, 51)" style="fill: rgb(51, 51, 51);"></polygon></g><g class="ld ld-fade" style="transform-origin: 50px 50px 0px; animation-duration: 1.5s; animation-delay: -1.08s; animation-direction: normal;"><polygon class="st9" points="65.5,39.9 64.8,39.9 63.2,39.9 63.2,42.2 64.8,42.2 64.8,60.1 67.1,60.1 67.1,39.9 " fill="rgb(51, 51, 51)" style="fill: rgb(51, 51, 51);"></polygon></g><g class="ld ld-fade" style="transform-origin: 50px 50px 0px; animation-duration: 1.5s; animation-delay: -1.02s; animation-direction: normal;"><polygon class="st9" points="17.7,67.2 17,67.2 15.4,67.2 15.4,69.5 17,69.5 17,87.5 19.3,87.5 19.3,67.2 " fill="rgb(51, 51, 51)" style="fill: rgb(51, 51, 51);"></polygon></g><g class="ld ld-fade" style="transform-origin: 50px 50px 0px; animation-duration: 1.5s; animation-delay: -0.96s; animation-direction: normal;"><polygon class="st9" points="49.3,67.2 48.6,67.2 47,67.2 47,69.5 48.6,69.5 48.6,87.5 50.9,87.5 50.9,67.2 " fill="rgb(51, 51, 51)" style="fill: rgb(51, 51, 51);"></polygon></g><g class="ld ld-fade" style="transform-origin: 50px 50px 0px; animation-duration: 1.5s; animation-delay: -0.9s; animation-direction: normal;"><path class="st9" d="M18.4,38.8c-4.6,0-8.4,5-8.4,11.2s3.8,11.2,8.4,11.2s8.4-5,8.4-11.2S23,38.8,18.4,38.8z M18.4,40.8 c2,0,3.8,1.4,5,3.5l-10.8,9.3c-0.3-1.1-0.5-2.3-0.5-3.6C12.1,44.9,14.9,40.8,18.4,40.8z M18.4,59.2c-2,0-3.8-1.4-5-3.5l10.8-9.3 c0.3,1.1,0.5,2.4,0.5,3.7C24.7,55.1,21.9,59.2,18.4,59.2z" fill="rgb(51, 51, 51)" style="fill: rgb(51, 51, 51);"></path></g><g class="ld ld-fade" style="transform-origin: 50px 50px 0px; animation-duration: 1.5s; animation-delay: -0.84s; animation-direction: normal;"><path class="st9" d="M50,38.8c-4.6,0-8.4,5-8.4,11.2s3.8,11.2,8.4,11.2s8.4-5,8.4-11.2S54.6,38.8,50,38.8z M50,40.8 c2,0,3.8,1.4,5,3.5l-10.8,9.3c-0.3-1.1-0.5-2.3-0.5-3.6C43.7,44.9,46.5,40.8,50,40.8z M50,59.2c-2,0-3.8-1.4-5-3.5l10.8-9.3 c0.3,1.1,0.5,2.4,0.5,3.7C56.3,55.1,53.5,59.2,50,59.2z" fill="rgb(51, 51, 51)" style="fill: rgb(51, 51, 51);"></path></g><g class="ld ld-fade" style="transform-origin: 50px 50px 0px; animation-duration: 1.5s; animation-delay: -0.78s; animation-direction: normal;"><path class="st9" d="M81.6,38.8c-4.6,0-8.4,5-8.4,11.2s3.8,11.2,8.4,11.2S90,56.2,90,50S86.2,38.8,81.6,38.8z M81.6,40.8 c2,0,3.8,1.4,5,3.5l-10.8,9.3c-0.3-1.1-0.5-2.3-0.5-3.6C75.3,44.9,78.1,40.8,81.6,40.8z M81.6,59.2c-2,0-3.8-1.4-5-3.5l10.8-9.3 c0.3,1.1,0.5,2.4,0.5,3.7C87.9,55.1,85.1,59.2,81.6,59.2z" fill="rgb(51, 51, 51)" style="fill: rgb(51, 51, 51);"></path></g><g class="ld ld-fade" style="transform-origin: 50px 50px 0px; animation-duration: 1.5s; animation-delay: -0.72s; animation-direction: normal;"><path class="st9" d="M33.8,66.1c-4.6,0-8.4,5-8.4,11.2s3.8,11.2,8.4,11.2s8.4-5,8.4-11.2S38.4,66.1,33.8,66.1z M33.8,68.1 c2,0,3.8,1.4,5,3.5L28,81c-0.3-1.1-0.5-2.3-0.5-3.6C27.4,72.3,30.3,68.1,33.8,68.1z M33.8,86.5c-2,0-3.8-1.4-5-3.5l10.8-9.3 c0.3,1.1,0.5,2.4,0.5,3.7C40.1,82.4,37.3,86.5,33.8,86.5z" fill="rgb(51, 51, 51)" style="fill: rgb(51, 51, 51);"></path></g><g class="ld ld-fade" style="transform-origin: 50px 50px 0px; animation-duration: 1.5s; animation-delay: -0.66s; animation-direction: normal;"><path class="st9" d="M65.4,66.1c-4.6,0-8.4,5-8.4,11.2s3.8,11.2,8.4,11.2s8.4-5,8.4-11.2S70,66.1,65.4,66.1z M65.4,68.1 c2,0,3.8,1.4,5,3.5L59.6,81c-0.3-1.1-0.5-2.3-0.5-3.6C59,72.3,61.9,68.1,65.4,68.1z M65.4,86.5c-2,0-3.8-1.4-5-3.5l10.8-9.3 c0.3,1.1,0.5,2.4,0.5,3.7C71.7,82.4,68.9,86.5,65.4,86.5z" fill="rgb(51, 51, 51)" style="fill: rgb(51, 51, 51);"></path></g><g class="ld ld-fade" style="transform-origin: 50px 50px 0px; animation-duration: 1.5s; animation-delay: -0.6s; animation-direction: normal;"><polygon class="st9" points="80.9,67.2 80.2,67.2 78.6,67.2 78.6,69.5 80.2,69.5 80.2,87.5 82.5,87.5 82.5,67.2 " fill="rgb(51, 51, 51)" style="fill: rgb(51, 51, 51);"></polygon></g><metadata xmlns:d="https://loading.io/stock/" class="ld ld-fade" style="transform-origin: 50px 50px 0px; animation-duration: 1.5s; animation-delay: -0.54s; animation-direction: normal;">
<d:name class="ld ld-fade" style="transform-origin: 50px 50px 0px; animation-duration: 1.5s; animation-delay: -0.48s; animation-direction: normal;">data</d:name>
<d:tags class="ld ld-fade" style="transform-origin: 50px 50px 0px; animation-duration: 1.5s; animation-delay: -0.42s; animation-direction: normal;">data,bit,byte,kb,mb,machine code,memory,information,storage,database</d:tags>
<d:license class="ld ld-fade" style="transform-origin: 50px 50px 0px; animation-duration: 1.5s; animation-delay: -0.36s; animation-direction: normal;">cc-by</d:license>
<d:slug class="ld ld-fade" style="transform-origin: 50px 50px 0px; animation-duration: 1.5s; animation-delay: -0.3s; animation-direction: normal;">qn01yo</d:slug>
</metadata></g></g></g></g><style type="text/css" class="ld ld-fade" style="transform-origin: 50px 50px 0px; animation-duration: 1.5s; animation-delay: -0.24s; animation-direction: normal;">path,ellipse,circle,rect,polygon,polyline,line { stroke-width: 0; }@keyframes ld-fade {
  0% {
    opacity: 1;
  }
  100% {
    opacity: 0;
  }
}
@-webkit-keyframes ld-fade {
  0% {
    opacity: 1;
  }
  100% {
    opacity: 0;
  }
}
.ld.ld-fade {
  -webkit-animation: ld-fade 1s infinite linear;
  animation: ld-fade 1s infinite linear;
}
</style></svg></svg>