<svg xmlns="http://www.w3.org/2000/svg" height="512pt" version="1.1" viewBox="0 -20 512 512" width="512pt">
<g id="surface1">
<path d="M 175.117188 141.859375 L 175.117188 380.90625 L 218.757812 380.90625 L 256 434 L 293.242188 380.90625 L 382 380.90625 C 404.089844 380.90625 422 362.996094 422 340.90625 L 422 130 C 422 107.910156 404.089844 90 382 90 L 226.980469 90 C 198.335938 90 175.117188 113.21875 175.117188 141.859375 Z M 175.117188 141.859375 " style=" stroke:none;fill-rule:nonzero;fill:rgb(100%,36.470588%,36.470588%);fill-opacity:1;" />
<path d="M 341.296875 239.453125 C 341.296875 286.5625 303.105469 324.75 256 324.75 C 208.890625 324.75 170.703125 286.5625 170.703125 239.453125 C 170.703125 192.34375 208.890625 154.15625 256 154.15625 C 303.105469 154.15625 341.296875 192.34375 341.296875 239.453125 Z M 341.296875 239.453125 " style=" stroke:none;fill-rule:nonzero;fill:rgb(100%,100%,100%);fill-opacity:1;" />
<path d="M 256 334.75 C 203.453125 334.75 160.703125 292 160.703125 239.453125 C 160.703125 186.90625 203.453125 144.15625 256 144.15625 C 308.546875 144.15625 351.296875 186.90625 351.296875 239.453125 C 351.296875 292 308.546875 334.75 256 334.75 Z M 256 164.15625 C 214.480469 164.15625 180.703125 197.933594 180.703125 239.453125 C 180.703125 280.972656 214.480469 314.75 256 314.75 C 297.519531 314.75 331.296875 280.972656 331.296875 239.453125 C 331.296875 197.933594 297.519531 164.15625 256 164.15625 Z M 256 164.15625 " style=" stroke:none;fill-rule:nonzero;fill:rgb(0%,0%,0%);fill-opacity:1;" />
<path d="M 270.144531 241.113281 L 283.347656 227.910156 C 287.253906 224.007812 287.253906 217.675781 283.347656 213.769531 C 279.441406 209.863281 273.109375 209.863281 269.203125 213.769531 L 256 226.972656 L 242.796875 213.769531 C 238.890625 209.863281 232.558594 209.863281 228.652344 213.769531 C 224.75 217.671875 224.75 224.003906 228.652344 227.910156 L 241.859375 241.113281 L 228.652344 254.320312 C 224.75 258.222656 224.75 264.554688 228.652344 268.460938 C 230.605469 270.414062 233.164062 271.390625 235.726562 271.390625 C 238.285156 271.390625 240.84375 270.414062 242.796875 268.460938 L 256 255.257812 L 269.203125 268.460938 C 271.15625 270.414062 273.714844 271.390625 276.273438 271.390625 C 278.835938 271.390625 281.394531 270.414062 283.347656 268.460938 C 287.25 264.558594 287.25 258.226562 283.347656 254.320312 Z M 270.144531 241.113281 " style=" stroke:none;fill-rule:nonzero;fill:rgb(0%,0%,0%);fill-opacity:1;" />
<path d="M 256 444 C 252.738281 444 249.683594 442.410156 247.8125 439.742188 L 213.558594 390.90625 L 130.003906 390.90625 C 102.433594 390.90625 80.003906 368.476562 80.003906 340.90625 L 80.003906 130 C 80.003906 102.429688 102.433594 80 130.003906 80 L 156.335938 80 C 161.855469 80 166.335938 84.476562 166.335938 90 C 166.335938 95.523438 161.855469 100 156.335938 100 L 130.003906 100 C 113.460938 100 100.003906 113.457031 100.003906 130 L 100.003906 340.90625 C 100.003906 357.449219 113.460938 370.90625 130.003906 370.90625 L 218.757812 370.90625 C 222.015625 370.90625 225.070312 372.496094 226.945312 375.164062 L 256 416.585938 L 285.054688 375.164062 C 286.925781 372.496094 289.980469 370.90625 293.242188 370.90625 L 382 370.90625 C 398.542969 370.90625 412 357.449219 412 340.90625 L 412 130 C 412 113.457031 398.542969 100 382 100 L 233 100 C 227.476562 100 223 95.523438 223 90 C 223 84.476562 227.476562 80 233 80 L 382 80 C 409.570312 80 432 102.429688 432 130 L 432 340.90625 C 432 368.476562 409.570312 390.90625 382 390.90625 L 298.441406 390.90625 L 264.183594 439.742188 C 262.3125 442.410156 259.257812 444 256 444 Z M 256 444 " style=" stroke:none;fill-rule:nonzero;fill:rgb(0%,0%,0%);fill-opacity:1;" />
<path d="M 194.328125 100 C 191.699219 100 189.121094 98.929688 187.261719 97.070312 C 185.398438 95.210938 184.328125 92.628906 184.328125 90 C 184.328125 87.371094 185.398438 84.789062 187.261719 82.929688 C 189.121094 81.070312 191.699219 80 194.328125 80 C 196.96875 80 199.539062 81.070312 201.398438 82.929688 C 203.269531 84.789062 204.328125 87.371094 204.328125 90 C 204.328125 92.628906 203.269531 95.210938 201.398438 97.070312 C 199.539062 98.929688 196.96875 100 194.328125 100 Z M 194.328125 100 " style=" stroke:none;fill-rule:nonzero;fill:rgb(0%,0%,0%);fill-opacity:1;" />
<path d="M 462 140 C 456.476562 140 452 135.523438 452 130 C 452 91.402344 420.597656 60 382 60 C 376.476562 60 372 55.523438 372 50 C 372 44.476562 376.476562 40 382 40 C 431.625 40 472 80.375 472 130 C 472 135.523438 467.523438 140 462 140 Z M 462 140 " style=" stroke:none;fill-rule:nonzero;fill:rgb(0%,0%,0%);fill-opacity:1;" />
<path d="M 502 140 C 496.476562 140 492 135.523438 492 130 C 492 69.347656 442.652344 20 382 20 C 376.476562 20 372 15.523438 372 10 C 372 4.476562 376.476562 0 382 0 C 453.683594 0 512 58.316406 512 130 C 512 135.523438 507.523438 140 502 140 Z M 502 140 " style=" stroke:none;fill-rule:nonzero;fill:rgb(0%,0%,0%);fill-opacity:1;" />
<path d="M 130 432 C 80.375 432 40 391.625 40 342 C 40 336.476562 44.476562 332 50 332 C 55.523438 332 60 336.476562 60 342 C 60 380.597656 91.402344 412 130 412 C 135.523438 412 140 416.476562 140 422 C 140 427.523438 135.523438 432 130 432 Z M 130 432 " style=" stroke:none;fill-rule:nonzero;fill:rgb(0%,0%,0%);fill-opacity:1;" />
<path d="M 130 472 C 58.316406 472 0 413.683594 0 342 C 0 336.476562 4.476562 332 10 332 C 15.523438 332 20 336.476562 20 342 C 20 402.652344 69.347656 452 130 452 C 135.523438 452 140 456.476562 140 462 C 140 467.523438 135.523438 472 130 472 Z M 130 472 " style=" stroke:none;fill-rule:nonzero;fill:rgb(0%,0%,0%);fill-opacity:1;" />
</g>
</svg>